<?xml version="1.0" standalone="no"?><!DOCTYPE svg PUBLIC "-//W3C//DTD SVG 1.1//EN" "http://www.w3.org/Graphics/SVG/1.1/DTD/svg11.dtd"><svg t="1498616983632" class="icon" style="" viewBox="0 0 1024 1024" version="1.1" xmlns="http://www.w3.org/2000/svg" p-id="9036" xmlns:xlink="http://www.w3.org/1999/xlink" width="38" height="38"><defs><style type="text/css"></style></defs><path d="M174.625198 179.933228h593.779652v53.979968H174.625198v-53.979968zM174.625198 305.886487h593.779652v53.979969H174.625198v-53.979969zM174.625198 449.83307h269.899842v53.979968H174.625198v-59.018099 5.038131z" fill="#ffffff" p-id="9037"></path><path d="M30.678615 0v967.500966L347.720963 647.75962h-55.959234L84.658584 846.046038V53.979968h791.706203v323.879811h53.979968V0H30.678615z" fill="#ffffff" p-id="9038"></path><path d="M717.12388 471.425057A276.197505 276.197505 0 1 0 993.321385 747.622562 276.197505 276.197505 0 0 0 717.12388 471.425057z m0 517.667897a241.470392 241.470392 0 1 1 241.470392-241.470392A241.470392 241.470392 0 0 1 717.12388 989.632753z" fill="#ffffff" p-id="9039"></path><path d="M684.376032 893.728343l-153.662976-153.84291 37.965911-36.886312 117.136531 116.956599 181.012827-182.27236 36.706379 36.886311-219.158672 219.158672z" fill="#ffffff" p-id="9040"></path></svg>