<?xml version="1.0" standalone="no"?><!DOCTYPE svg PUBLIC "-//W3C//DTD SVG 1.1//EN" "http://www.w3.org/Graphics/SVG/1.1/DTD/svg11.dtd"><svg t="1498616391109" class="icon" style="" viewBox="0 0 1024 1024" version="1.1" xmlns="http://www.w3.org/2000/svg" p-id="8275" xmlns:xlink="http://www.w3.org/1999/xlink" width="38" height="38"><defs><style type="text/css"></style></defs><path d="M463.968565 585.211419c0-11.709693-9.028631-20.738323-20.804838-20.738323L310.948473 564.473095c-11.514241 0-20.574594 9.027607-20.574594 20.738323 0 11.253298 9.060353 20.280906 20.574594 20.280906l132.216277 0C454.940958 605.492324 463.968565 596.464717 463.968565 585.211419L463.968565 585.211419zM891.695207 325.06447 891.695207 325.06447 643.289674 76.626191c-6.313799-6.085602-14.915711-10.008958-24.40176-10.008958L211.638653 66.617234c-25.188682 0-48.15065 10.270924-64.768119 26.855648-16.812921 16.844643-27.214828 39.776935-27.214828 65.191768l0 709.890023c0 25.611308 10.401908 48.019667 27.214828 64.897056l0 0 0 0c16.617469 16.618493 39.579437 27.085892 64.768119 27.085892l598.34453 0c24.63098 0 47.562249-9.977235 64.177672-26.297946l0.459464-0.787946 0.228197 0c16.84669-16.877389 27.117614-39.775912 27.117614-64.897056L901.966131 349.990163C901.966131 340.961532 898.563638 331.900156 891.695207 325.06447L891.695207 325.06447zM639.690706 170.113399 639.690706 170.113399l158.549016 159.105694L676.523589 329.219093c-9.846252 0-19.561521-4.64581-25.873274-11.187807l-1.01512-1.045819c-6.345522-6.312776-9.94449-15.373129-9.94449-24.629957L639.690706 170.113399 639.690706 170.113399zM833.142649 868.553649 833.142649 868.553649c0 6.344498-2.486634 12.233626-6.541997 16.35448l-0.230244 0c-4.186346 4.351098-10.042727 7.065929-16.388249 7.065929L211.638653 891.974058c-6.084579 0-12.005428-2.714831-16.389272-7.065929l0 0c-3.827165-4.120854-6.803963-10.009981-6.803963-16.35448L188.445418 158.663626c0-6.378268 2.976798-12.167111 6.803963-16.35448 4.38282-4.644787 10.30367-6.869455 16.389272-6.869455l386.444423 0 0 156.914796c0 20.312628 8.603959 39.546691 22.276353 53.448306l1.014096 1.471514c14.131859 14.425547 33.692357 22.962991 55.151088 22.962991l156.61906 0L833.143673 868.553649 833.142649 868.553649zM310.391794 418.813644 310.391794 418.813644l-0.456395 0-0.458441 0-0.555655 0-0.457418 0-0.426719 0-0.816598 0 0 0.948605-0.425695 0-0.817622 0-0.458441 0-0.195451 0.523933-0.229221 0-0.458441 0-0.555655 0.457418-0.457418 0-0.458441 0-0.554632 0 0 0.457418-0.458441 0-0.785899 0-0.228197 0.26299-0.458441 0.523933-0.458441 0-0.555655 0.456395-0.229221 0-0.228197 0.196475 0 0.294712-0.458441 0.294712-0.555655 0.196475-0.458441 0.260943 0 0.458441-0.457418 0-0.556679 0.490164-0.458441 0.491187 0 0.457418-0.653893 0 0 0.522909-0.360204 0 0 0.522909-0.458441 0-0.228197 0.425695-0.228197 0.230244-0.196475 0.588401-0.260943 0.458441-0.328481 0-0.195451 0.719384-0.458441 0.26299 0 0.457418-0.458441 0.230244 0 0.490164-0.588401 0.981351 0 0 0 0.523933 0 0.490164 0 0.458441-0.425695 0.228197 0 0.522909 0 0.458441-0.458441 0.458441 0 0.522909 0 0.293689 0 0.458441-0.588401 0.458441 0 1.014096 0 0.424672 0 0.523933 0 0.491187 0 0.260943 0 0.457418 0 0.523933 0 0.230244 0 0.457418 0 0.523933 0 0.490164 0 0.458441 0 1.046842 0.588401 0 0 0.425695 0 1.013073 0 0.230244 0.458441 0.425695 0 0.522909 0 0.522909 0.425695 0.457418 0 0.229221 0 0.261966 0 0.229221 0 0.522909 0.588401 0.458441 0 0.490164 0.458441 0.490164 0 0.457418 0.458441 0.522909 0.195451 0.26299 0.328481 0.456395 0.260943 0.261966 0.196475 0.491187 0.228197 0.294712 0.228197 0.424672 0.458441 0.458441 0.360204 0.294712 0.653893 0 0 0.523933 0.458441 0.948605 0.556679 0 0.457418 0.490164 0 0.458441 0.458441 0.458441 0.555655 0 0.458441 0 0 0.260943 0.228197 0.326435 0.229221 0.196475 0.555655 0.229221 0.458441 0.230244 0.458441 0 0.228197 0.522909 0.785899 0 0.458441 0.490164 0.554632 0 0.458441 0.229221 0 0.230244 0.457418 0 0.555655 0 0 0.228197 0.458441 0 0.229221 0 0.195451 0 0.458441 0.523933 0.817622 0 0.425695 0 0.816598 0 0.426719 0 0.457418 0 0.555655 0 0.458441 0 0.456395 0 0.556679 0 399.921365 0 0.458441 0 0.784876 0 0.458441 0 0.554632 0 0.458441 0 0.457418 0 0.556679 0 0.457418 0 0.458441 0 0.228197-0.523933 0.784876 0 0.231267 0 0.686638 0 0-0.228197 0.555655 0 0.457418 0 0-0.230244 0.457418-0.229221 0.556679 0 0.457418-0.490164 0.425695 0 0.589424-0.522909 0 0 0.456395-0.230244 0.195451-0.229221 0.818645-0.196475 0.228197-0.326435 0-0.260943 0.426719 0 0.229221 0 0.587378-0.458441 0.426719-0.458441 0.457418-0.490164 0.588401 0 0-0.948605 0.424672-0.523933 0.458441 0 0-0.294712 0.587378-0.458441 0.196475-0.424672 0.229221-0.294712 0.230244-0.491187 0.228197-0.261966 0.458441-0.456395 0-0.26299 0.556679-0.522909 0.228197-0.457418 0.230244-0.490164 0.457418-0.490164 0-0.458441 0-0.522909 0.556679-0.229221 0-0.261966 0-0.229221 0.456395-0.457418 0-0.522909 0-0.522909 0-0.425695 0.458441-0.230244 0-1.013073 0-0.425695 0 0 0-1.046842 0-0.458441 0-0.490164 0-0.523933 0-0.457418 0-0.230244 0-0.523933 0-0.457418 0-0.260943 0-0.491187 0-0.523933 0-0.424672 0-1.014096 0-0.458441 0-0.458441 0-0.293689-0.458441-0.522909 0-0.458441 0-0.458441 0-0.522909-0.456395-0.228197 0-0.458441-0.556679-0.490164 0-0.523933 0 0 0-0.981351-0.457418-0.490164-0.230244-0.230244-0.228197-0.457418-0.556679-0.26299 0-0.719384-0.458441 0-0.228197-0.458441-0.230244-0.588401-0.229221-0.230244-0.196475-0.425695-0.587378 0 0-0.522909 0 0 0-0.522909-0.458441 0-0.424672-0.457418 0-0.491187-0.588401-0.490164-0.457418 0-0.426719-0.458441-0.587378-0.260943-0.229221-0.196475-0.426719-0.294712 0-0.294712-0.228197-0.196475-0.818645 0-0.195451-0.456395-0.456395 0 0-0.523933-0.589424-0.26299-0.425695 0-0.457418 0 0-0.457418-0.556679 0-0.457418 0-0.457418 0-0.555655-0.457418-0.686638 0-0.231267 0-0.784876-0.523933-0.228197 0-0.458441 0-0.457418 0 0-0.948605-0.556679 0-0.457418 0-0.458441 0-0.554632 0-0.458441 0-0.784876 0-0.458441 0L310.948473 418.813644 310.391794 418.813644 310.391794 418.813644zM710.215946 532.024056 710.215946 532.024056c-21.034059-21.22951-49.852408-34.444487-82.267679-34.444487-31.991622 0-61.235666 13.214976-82.268702 34.444487-21.033036 20.705578-34.149774 50.015114-34.149774 81.972966 0 15.635095 2.944052 30.486338 8.832156 44.158732l-74.023924 127.898949c-3.174296 4.449335-4.187369 10.533914-2.714831 16.127306 2.943029 10.957563 14.229073 17.565051 25.415856 14.426571l58.094116-15.178701 15.60235 58.094116 0.555655 0c0.916882 5.363148 4.088108 9.486048 8.931416 12.658298 10.041704 5.429663 22.470781 2.190899 28.130687-7.818059l47.594995-82.464153 46.546106 81.024361c2.487657 5.136997 7.131421 9.487072 13.216 10.958586 10.957563 3.172249 22.50455-3.174296 25.414833-14.359033l15.604396-58.094116 58.323337 15.178701c4.839215 1.436722 10.498098 0.914836 15.797801-1.701758 9.290597-5.889127 12.758582-18.317181 7.131421-28.393677l-73.893964-128.35739c5.299703-13.672394 8.244778-28.523637 8.244778-44.158732C744.333998 582.039169 731.117998 552.730657 710.215946 532.024056L710.215946 532.024056zM609.859283 731.167628 609.859283 731.167628l-40.005133 69.739341-8.013511-30.715559c-2.945075-10.239202-14.46034-16.553001-25.417903-14.164604l-0.490164 0-29.603225 7.785314 39.08825-67.350944 0.261966 0c18.056238 18.284435 40.005133 28.817326 64.636113 32.775474l0 0 0.785899 0L609.859283 731.167628 609.859283 731.167628zM565.666782 655.999648 565.666782 655.999648l-1.243317-1.01512 0-0.424672c-7.556093-11.777231-11.644201-25.678846-11.644201-40.561811 0-20.738323 8.504698-39.513946 21.914102-53.121871C588.36883 547.168987 607.143429 538.599821 627.948267 538.599821c20.671809 0 39.775912 8.569166 53.220109 22.276353 13.900591 13.607926 22.145369 32.383548 22.145369 53.121871 0 20.312628-7.785314 38.337143-21.033036 52.238758l0 0-1.112334 0.948605C649.177777 699.373505 590.526983 696.462199 565.666782 655.999648L565.666782 655.999648zM749.762637 763.813143 749.762637 763.813143l-30.290887-7.785314c-10.728342-2.388397-22.50455 3.925403-25.415856 14.164604l-8.04728 30.715559-40.561811-69.739341-0.686638-1.929955 0.458441 0 0.228197 0 0.556679 0 0.686638-0.523933 0.458441 0c23.943318-3.892657 44.976354-14.391778 63.066361-32.252565l0 0L749.762637 763.813143 749.762637 763.813143zM310.948473 315.28371 310.948473 315.28371l221.059722 0c11.283997 0 20.541849-9.486048 20.541849-20.739347 0-11.676947-9.257851-20.738323-20.541849-20.738323L310.948473 273.80604c-11.514241 0-20.574594 9.061376-20.574594 20.738323C290.373879 305.797661 299.434232 315.28371 310.948473 315.28371L310.948473 315.28371z" p-id="8276" fill="#ffffff"></path></svg>